Coordinates
version=1
nRows=19
nColumns=24
inDegrees=yes

Units are S.I. units (second, meters, Newtons, ...)
Angles are in degrees.

endheader
time	pelvis_tilt	pelvis_list	pelvis_rotation	pelvis_tx	pelvis_ty	pelvis_tz	hip_flexion_r	hip_adduction_r	hip_rotation_r	knee_angle_r	ankle_angle_r	subtalar_angle_r	mtp_angle_r	hip_flexion_l	hip_adduction_l	hip_rotation_l	knee_angle_l	ankle_angle_l	subtalar_angle_l	mtp_angle_l	lumbar_extension	lumbar_bending	lumbar_rotation
      3.62500000	      8.56373852	      0.32975087	     -1.19087443	     -0.12021364	      1.02615093	      0.00296561	     16.07000206	     -3.75114091	     -4.00925537	    -31.23446336	      8.03023547	     -2.62439210	     17.46664126	    -12.92228417	      2.50986894	     -8.05422482	     -7.24278837	     14.39430428	     13.27769390	      1.43307340	    -18.82622663	      0.89818562	     -2.08774707
      3.63000000	      8.58074379	      0.46559586	     -1.21100578	     -0.11512235	      1.02536921	      0.00317081	     16.02270322	     -3.83150200	     -3.95167651	    -29.74625317	      7.93644446	     -2.37917562	     17.45722828	    -13.30509926	      2.66729701	     -7.92834087	     -7.16130932	     14.64003192	     13.18159470	      1.47271596	    -18.81824416	      0.74529293	     -2.11488021
      3.63500000	      8.56614609	      0.62360243	     -1.23886022	     -0.11004910	      1.02451218	      0.00338029	     16.00315357	     -3.93534858	     -3.87214052	    -28.25211698	      7.80659968	     -2.14078379	     17.43995803	    -13.63646725	      2.84871872	     -7.81785960	     -7.11279786	     14.88322837	     13.07959669	      1.52044268	    -18.77786393	      0.56857964	     -2.15641246
      3.64000000	      8.59150018	      0.78349034	     -1.26005504	     -0.10489315	      1.02367901	      0.00354960	     15.90925750	     -4.05052124	     -3.80344918	    -26.73176727	      7.72921124	     -1.90297230	     17.42136878	    -14.05206146	      3.03761147	     -7.64852470	     -6.98860655	     15.07751505	     12.96182467	      1.58593619	    -18.77356940	      0.39681388	     -2.18745436
      3.64500000	      8.58834987	      0.94752738	     -1.29393492	     -0.09973067	      1.02277721	      0.00372272	     15.84008048	     -4.17168885	     -3.72372834	    -25.21127095	      7.61201371	     -1.66310965	     17.39341489	    -14.42537182	      3.23335364	     -7.51151686	     -6.89178431	     15.28702317	     12.84453799	      1.67051438	    -18.73688110	      0.22154373	     -2.21030911
      3.65000000	      8.56276329	      1.13958551	     -1.33699405	     -0.09457000	      1.02180887	      0.00390500	     15.79145894	     -4.32349084	     -3.62701788	    -23.69611342	      7.48331444	     -1.42842593	     17.35888895	    -14.77504138	      3.46170098	     -7.36486855	     -6.79162368	     15.48514872	     12.70244085	      1.76316527	    -18.67620133	      0.01345764	     -2.22700205
      3.65500000	      8.55267233	      1.32468300	     -1.37702949	     -0.08935983	      1.02083743	      0.00406215	     15.70753375	     -4.47600766	     -3.55002670	    -22.17379949	      7.34469300	     -1.20094068	     17.31430349	    -15.15189022	      3.68457349	     -7.22718977	     -6.67891976	     15.67351485	     12.56206540	      1.87682191	    -18.62774269	     -0.18029189	     -2.24863013
      3.66000000	      8.52370423	      1.52761155	     -1.42494756	     -0.08414442	      1.01981364	      0.00424115	     15.64279378	     -4.64755481	     -3.46680183	    -20.66724723	      7.19894625	     -0.98514048	     17.26631058	    -15.51118956	      3.92660979	     -7.08753188	     -6.56027520	     15.85240569	     12.42903147	      1.99077581	    -18.55913508	     -0.39667601	     -2.25466806
      3.66500000	      8.50348914	      1.72780395	     -1.46724822	     -0.07889496	      1.01877341	      0.00440014	     15.55701508	     -4.82367974	     -3.41058091	    -19.16833903	      7.04162869	     -0.77226357	     17.20782937	    -15.88728176	      4.16583740	     -6.95679286	     -6.43310060	     16.02470319	     12.29570536	      2.12806291	    -18.49732549	     -0.60392670	     -2.27201728
      3.67000000	      8.46250576	      1.93478257	     -1.51085988	     -0.07363083	      1.01769223	      0.00456503	     15.49149907	     -5.00826862	     -3.36500009	    -17.69162757	      6.85355903	     -0.57799826	     17.14662090	    -16.23913140	      4.41042504	     -6.83194256	     -6.31185131	     16.19380157	     12.18891446	      2.25063331	    -18.41202605	     -0.81642518	     -2.27764268
      3.67500000	      8.44001554	      2.13510159	     -1.54233260	     -0.06830636	      1.01662465	      0.00472423	     15.38929829	     -5.19089128	     -3.35505902	    -16.22564595	      6.67317265	     -0.39337410	     17.08023619	    -16.62624106	      4.64537185	     -6.71670037	     -6.16961662	     16.35198020	     12.08903747	      2.38965334	    -18.34074365	     -1.01792406	     -2.29689353
      3.68000000	      8.30872095	      2.35274548	     -1.59699898	     -0.06299508	      1.01536064	      0.00496221	     15.43602719	     -5.37974788	     -3.31133470	    -14.83855095	      6.50545073	     -0.18193086	     17.05081899	    -16.87547173	      4.89384205	     -6.66658672	     -6.07007708	     16.56956055	     12.08528831	      2.44275534	    -18.14983156	     -1.24676195	     -2.29356977
      3.68500000	      8.38241911	      2.53192868	     -1.58806393	     -0.05758629	      1.01442568	      0.00509576	     15.19574793	     -5.55343138	     -3.42086177	    -13.40485986	      6.25201831	     -0.06233436	     16.96243656	    -17.39387154	      5.09678606	     -6.53238806	     -5.88557463	     16.67150741	     11.96535479	      2.59659635	    -18.18148174	     -1.41363753	     -2.34172930
      3.69000000	      8.40156468	      2.70499882	     -1.59681343	     -0.05214519	      1.01338878	      0.00532401	     15.03594258	     -5.71070856	     -3.53887827	    -12.05293300	      6.02872475	      0.13847474	     16.87116366	    -17.84486656	      5.28659659	     -6.49236942	     -5.72779798	     16.82194015	     11.97430927	      2.81257920	    -18.14988873	     -1.58528480	     -2.37613592
      3.69500000	      8.37822888	      2.88943970	     -1.59735272	     -0.04670580	      1.01227240	      0.00555465	     14.93650525	     -5.87536732	     -3.65548308	    -10.77336278	      5.79815892	      0.28730857	     16.78599368	    -18.24361956	      5.48272192	     -6.44371032	     -5.58220478	     16.96534335	     11.99479952	      2.99847772	    -18.07119419	     -1.76294403	     -2.40912335
      3.70000000	      8.37933320	      3.05779748	     -1.58068751	     -0.04124497	      1.01120073	      0.00582268	     14.80997324	     -6.02093594	     -3.82056980	     -9.55362222	      5.56145413	      0.43338887	     16.71157588	    -18.66665030	      5.65053853	     -6.41334111	     -5.44617872	     17.10099132	     12.05919899	      3.15814044	    -18.02047193	     -1.92418958	     -2.44406125
      3.70500000	      8.38262338	      3.20574271	     -1.55616063	     -0.03571670	      1.01014184	      0.00611071	     14.68327654	     -6.14155821	     -4.01855344	     -8.40595431	      5.31882490	      0.58280851	     16.63754248	    -19.10033038	      5.79118733	     -6.40909596	     -5.30485941	     17.24617309	     12.15534864	      3.32547259	    -17.96644401	     -2.06046831	     -2.49440769
      3.71000000	      8.41414339	      3.33972407	     -1.52376078	     -0.03018492	      1.00911757	      0.00644792	     14.54077583	     -6.24181858	     -4.24455128	     -7.34931187	      5.08626794	      0.72230825	     16.56680616	    -19.56407188	      5.91007251	     -6.42744490	     -5.16616745	     17.38841343	     12.27843826	      3.49651460	    -17.94650113	     -2.18462000	     -2.54773728
      3.71500000	      8.42151414	      3.45876783	     -1.47740872	     -0.02461016	      1.00807958	      0.00682382	     14.43545324	     -6.31992880	     -4.49355182	     -6.38570004	      4.85493026	      0.84959511	     16.50177933	    -19.99795034	      6.00169961	     -6.46453520	     -5.04172204	     17.53439644	     12.43637242	      3.66892850	    -17.89653126	     -2.29315333	     -2.60735028
